<svg width="113" height="19" viewBox="0 0 113 19" fill="none" xmlns="http://www.w3.org/2000/svg">
<path d="M9.97182 0.175049L12.0272 6.4837H18.6787L13.2975 10.3827L15.353 16.6913L9.97182 12.7924L4.59069 16.6913L6.6461 10.3827L1.26497 6.4837H7.91641L9.97182 0.175049Z" fill="#56B280"/>
<path d="M32.2405 0.175049L34.2959 6.4837H40.9474L35.5662 10.3827L37.6216 16.6913L32.2405 12.7924L26.8594 16.6913L28.9148 10.3827L23.5336 6.4837H30.1851L32.2405 0.175049Z" fill="#56B280"/>
<path d="M54.5093 0.175049L56.5647 6.4837H63.2162L57.835 10.3827L59.8904 16.6913L54.5093 12.7924L49.1282 16.6913L51.1836 10.3827L45.8024 6.4837H52.4539L54.5093 0.175049Z" fill="#56B280"/>
<path d="M76.7781 0.175049L78.8335 6.4837H85.485L80.1038 10.3827L82.1592 16.6913L76.7781 12.7924L71.397 16.6913L73.4524 10.3827L68.0712 6.4837H74.7227L76.7781 0.175049Z" fill="#56B280"/>
<path d="M103.006 0.175049L105.061 6.4837H111.713L106.331 10.3827L108.387 16.6913L103.006 12.7924L97.6246 16.6913L99.68 10.3827L94.2989 6.4837H100.95L103.006 0.175049Z" fill="#5BC08A"/>
<path d="M103.006 0.175049L105.061 6.4837H111.713L106.331 10.3827L108.387 16.6913L103.006 12.7924L97.6246 16.6913L99.68 10.3827L94.2989 6.4837H100.95L103.006 0.175049Z" fill="url(#paint0_linear_711_1451)"/>
<defs>
<linearGradient id="paint0_linear_711_1451" x1="105.336" y1="11.5875" x2="87.0265" y2="10.0576" gradientUnits="userSpaceOnUse">
<stop stop-color="white"/>
<stop offset="1" stop-color="white" stop-opacity="0"/>
</linearGradient>
</defs>
</svg>
