<svg width="52" height="42" viewBox="0 0 52 42" fill="none" xmlns="http://www.w3.org/2000/svg">
<path fill-rule="evenodd" clip-rule="evenodd" d="M43.5625 2.06254C44.4372 1.19549 45.618 0.707517 46.8496 0.704119C48.0812 0.700721 49.2646 1.18217 50.1441 2.04438C51.0236 2.9066 51.5283 4.08029 51.5493 5.31172C51.5703 6.54315 51.1058 7.73336 50.2563 8.62504L25.3063 39.8125C24.8775 40.2744 24.3599 40.6451 23.7846 40.9023C23.2093 41.1596 22.588 41.2982 21.9578 41.3099C21.3277 41.3216 20.7017 41.2061 20.1172 40.9703C19.5328 40.7345 19.0019 40.3832 18.5563 39.9375L2.02501 23.4C1.56447 22.9709 1.19508 22.4534 0.938878 21.8784C0.682678 21.3034 0.544915 20.6827 0.533811 20.0533C0.522706 19.4239 0.638486 18.7987 0.874242 18.2151C1.11 17.6314 1.4609 17.1012 1.90602 16.6561C2.35114 16.2109 2.88135 15.86 3.46502 15.6243C4.0487 15.3885 4.67388 15.2727 5.30328 15.2838C5.93267 15.295 6.55338 15.4327 7.12837 15.6889C7.70337 15.9451 8.22087 16.3145 8.65001 16.775L21.7375 29.8563L43.4438 2.20004C43.4825 2.15163 43.5242 2.1057 43.5688 2.06254H43.5625Z" fill="#56B280" fill-opacity="0.6"/>
</svg>
